<?xml version="1.0" encoding="UTF-8"?>
<svg width="600" height="650" viewBox="0 0 600 650" fill="none" xmlns="http://www.w3.org/2000/svg">
  <defs>
    <linearGradient id="shadowcoder-gradient" x1="0%" y1="0%" x2="100%" y2="100%">
      <stop offset="0%" stop-color="#67E8F9"/>
      <stop offset="100%" stop-color="#8B5CF6"/>
    </linearGradient>
    <linearGradient id="shadowcoder-glow" x1="0%" y1="0%" x2="100%" y2="0%">
      <stop offset="0%" stop-color="#67E8F9" stop-opacity="0.9"/>
      <stop offset="100%" stop-color="#3B82F6" stop-opacity="0.7"/>
    </linearGradient>
    <filter id="shadowcoder-soft-glow" x="-20%" y="-20%" width="140%" height="140%">
      <feGaussianBlur stdDeviation="12" result="blur"/>
      <feMerge>
        <feMergeNode in="blur"/>
        <feMergeNode in="SourceGraphic"/>
      </feMerge>
    </filter>
  </defs>

  <!-- Circuit screens -->
  <g stroke="url(#shadowcoder-gradient)" stroke-width="6" stroke-linecap="round" stroke-linejoin="round">
    <rect x="65" y="140" width="110" height="90" rx="12"/>
    <rect x="425" y="140" width="110" height="110" rx="12"/>
    <rect x="260" y="60" width="90" height="70" rx="12"/>
    <polyline points="120,230 120,310 70,350" />
    <circle cx="60" cy="360" r="10" fill="url(#shadowcoder-gradient)"/>
    <polyline points="485,250 485,330 535,360" />
    <circle cx="545" cy="370" r="10" fill="url(#shadowcoder-gradient)"/>
  </g>

  <!-- Binary text -->
  <text x="60" y="420" font-family="JetBrains Mono, 'Space Grotesk', sans-serif" font-size="32" font-weight="600" fill="url(#shadowcoder-gradient)">
    010110
  </text>
  <text x="420" y="420" font-family="JetBrains Mono, 'Space Grotesk', sans-serif" font-size="32" font-weight="600" fill="url(#shadowcoder-gradient)">
    101010
  </text>

  <!-- Shield -->
  <path
    d="M300 520C230 495 150 420 150 320V165L300 95L450 165V320C450 420 370 495 300 520Z"
    stroke="url(#shadowcoder-gradient)"
    stroke-width="12"
    fill="rgba(103, 232, 249, 0.05)"
    filter="url(#shadowcoder-soft-glow)"
  />

  <!-- Fingerprint -->
  <g stroke="url(#shadowcoder-gradient)" stroke-width="10" stroke-linecap="round" stroke-linejoin="round" filter="url(#shadowcoder-soft-glow)">
    <path d="M300 210C270 210 250 230 250 265C250 300 270 320 300 320C330 320 350 300 350 265C350 230 330 210 300 210Z" fill="none"/>
    <path d="M300 260C260 260 230 280 230 325C230 370 260 390 300 390C340 390 370 370 370 325C370 280 340 260 300 260Z" fill="none"/>
    <path d="M300 330C250 330 210 360 210 420C210 450 225 470 250 485" fill="none"/>
    <path d="M300 360C330 360 350 380 350 420C350 450 340 470 320 485" fill="none"/>
  </g>

  <!-- Text -->
  <text x="300" y="600" text-anchor="middle" font-family="'Space Grotesk', 'Poppins', sans-serif" font-size="72" font-weight="700" fill="url(#shadowcoder-glow)" letter-spacing="6">
    SHADOWCODER
  </text>
</svg>

